<svg id="Layer_1" data-name="Layer 1" xmlns="http://www.w3.org/2000/svg" viewBox="0 0 512 456.75"><defs><style>.cls-1{fill:#666565;}</style></defs><title>shopping-cart</title><path class="cls-1" d="M62.71,379.32a15,15,0,0,0-4.78,29.22,52.53,52.53,0,1,0,94.51.79h94.77a52.53,52.53,0,1,0,94.9,0H364a47.08,47.08,0,0,0,46.85-46,46.84,46.84,0,0,0-45.15-47.65L434,62.23a6.26,6.26,0,0,1,6-4.59h57a15,15,0,0,0,0-30H440a36.33,36.33,0,0,0-35,26.79l-17.78,66c-112.19.45-331.24,1.44-357,1.44A30.31,30.31,0,0,0,.79,159L37.21,316.69a37.3,37.3,0,0,0,36.5,29c64.15,0,228.12.12,290.29-.1,21.94,1.09,22.37,32.55,0,33.7Zm231.93,30h0a22.52,22.52,0,1,1-22.53,22.52A22.54,22.54,0,0,1,294.68,409.33ZM105,454.35a22.51,22.51,0,0,1-.37-45h.73a22.51,22.51,0,0,1-.36,45ZM30.09,152a.23.23,0,0,1,.23-.11l58.18-.24,8.85,67.06h-52L30,152.21a.23.23,0,0,1,.06-.25ZM140.43,315.71l-8.84-67h53.23v67Zm74.4,0v-67h53.33l-8.92,67Zm74.69,0,8.92-67h54.22l-16.45,61a8.15,8.15,0,0,1-7.83,6H289.52Zm-74.69-97V151.1l66.35-.26-9,67.83Zm-87.2,0-8.87-67.18,66.06-.27v67.45Zm251.51-68.23-18.39,68.23H302.43l9-68ZM66.46,309.94,52.31,248.69h49l8.85,67H73.71A7.41,7.41,0,0,1,66.46,309.94Z" transform="translate(0 -27.62)"/></svg>